<mxfile host="app.diagrams.net" modified="2023-06-07T22:26:28.802Z" agent="Mozilla/5.0 (Windows NT 10.0; Win64; x64) AppleWebKit/537.36 (KHTML, like Gecko) Chrome/114.0.0.0 Safari/537.36" etag="SbEvoW75ObuOk-_V6NeI" version="21.3.7" type="github">
  <diagram name="Page-1" id="JnCQ3wnWpXyBfCcaVyTE">
    <mxGraphModel dx="1825" dy="469" grid="1" gridSize="10" guides="1" tooltips="1" connect="1" arrows="1" fold="1" page="1" pageScale="1" pageWidth="827" pageHeight="1169" math="0" shadow="0">
      <root>
        <mxCell id="0" />
        <mxCell id="1" parent="0" />
        <mxCell id="6pDvvT8k-pxlVnAfTvqK-2" value="&lt;b&gt;&lt;font style=&quot;font-size: 16px;&quot; face=&quot;Times New Roman&quot;&gt;Admin&lt;/font&gt;&lt;/b&gt;" style="rounded=0;whiteSpace=wrap;html=1;fillColor=#d5e8d4;strokeColor=#82b366;" vertex="1" parent="1">
          <mxGeometry x="-10" y="200" width="160" height="80" as="geometry" />
        </mxCell>
        <mxCell id="6pDvvT8k-pxlVnAfTvqK-3" value="&lt;font face=&quot;Times New Roman&quot;&gt;&lt;span style=&quot;font-size: 16px;&quot;&gt;&lt;b&gt;Course Booking System&lt;/b&gt;&lt;/span&gt;&lt;/font&gt;" style="ellipse;whiteSpace=wrap;html=1;aspect=fixed;fillColor=#fff2cc;strokeColor=#d6b656;" vertex="1" parent="1">
          <mxGeometry x="380" y="120" width="240" height="240" as="geometry" />
        </mxCell>
        <mxCell id="6pDvvT8k-pxlVnAfTvqK-5" value="&lt;b&gt;&lt;font face=&quot;Times New Roman&quot;&gt;TXT&lt;/font&gt;&lt;/b&gt; &lt;b&gt;&lt;font face=&quot;Times New Roman&quot;&gt;File&lt;/font&gt;&lt;/b&gt;" style="shape=process;whiteSpace=wrap;html=1;backgroundOutline=1;fillColor=#f8cecc;strokeColor=#b85450;" vertex="1" parent="1">
          <mxGeometry x="850" y="200" width="160" height="80" as="geometry" />
        </mxCell>
        <mxCell id="6pDvvT8k-pxlVnAfTvqK-7" value="&lt;font style=&quot;font-size: 14px;&quot;&gt;Create Booking Files&lt;/font&gt;" style="endArrow=classic;html=1;rounded=0;entryX=0;entryY=0;entryDx=0;entryDy=0;exitX=0.565;exitY=0;exitDx=0;exitDy=0;exitPerimeter=0;fontSize=14;fontFamily=Times New Roman;" edge="1" parent="1" source="6pDvvT8k-pxlVnAfTvqK-2" target="6pDvvT8k-pxlVnAfTvqK-3">
          <mxGeometry width="50" height="50" relative="1" as="geometry">
            <mxPoint x="80" y="190" as="sourcePoint" />
            <mxPoint x="320" y="120" as="targetPoint" />
            <Array as="points">
              <mxPoint x="80" y="160" />
            </Array>
          </mxGeometry>
        </mxCell>
        <mxCell id="6pDvvT8k-pxlVnAfTvqK-8" value="" style="endArrow=classic;html=1;rounded=0;entryX=0;entryY=0.5;entryDx=0;entryDy=0;exitX=1;exitY=0.5;exitDx=0;exitDy=0;" edge="1" parent="1" source="6pDvvT8k-pxlVnAfTvqK-2" target="6pDvvT8k-pxlVnAfTvqK-3">
          <mxGeometry width="50" height="50" relative="1" as="geometry">
            <mxPoint x="240" y="242" as="sourcePoint" />
            <mxPoint x="290" y="192" as="targetPoint" />
          </mxGeometry>
        </mxCell>
        <mxCell id="6pDvvT8k-pxlVnAfTvqK-9" value="&lt;font style=&quot;font-size: 14px;&quot; face=&quot;Times New Roman&quot;&gt;Open/Edit Booking Files&lt;/font&gt;" style="edgeLabel;html=1;align=center;verticalAlign=middle;resizable=0;points=[];" vertex="1" connectable="0" parent="6pDvvT8k-pxlVnAfTvqK-8">
          <mxGeometry x="-0.2051" y="-1" relative="1" as="geometry">
            <mxPoint as="offset" />
          </mxGeometry>
        </mxCell>
        <mxCell id="6pDvvT8k-pxlVnAfTvqK-10" value="" style="endArrow=classic;html=1;rounded=0;exitX=0.563;exitY=1;exitDx=0;exitDy=0;exitPerimeter=0;entryX=0;entryY=1;entryDx=0;entryDy=0;" edge="1" parent="1" source="6pDvvT8k-pxlVnAfTvqK-2" target="6pDvvT8k-pxlVnAfTvqK-3">
          <mxGeometry width="50" height="50" relative="1" as="geometry">
            <mxPoint x="20" y="360" as="sourcePoint" />
            <mxPoint x="360" y="360" as="targetPoint" />
            <Array as="points">
              <mxPoint x="80" y="330" />
            </Array>
          </mxGeometry>
        </mxCell>
        <mxCell id="6pDvvT8k-pxlVnAfTvqK-13" value="&lt;font face=&quot;Times New Roman&quot; style=&quot;font-size: 14px;&quot;&gt;Edit Seats&lt;/font&gt;" style="edgeLabel;html=1;align=center;verticalAlign=middle;resizable=0;points=[];" vertex="1" connectable="0" parent="6pDvvT8k-pxlVnAfTvqK-10">
          <mxGeometry x="-0.0896" relative="1" as="geometry">
            <mxPoint as="offset" />
          </mxGeometry>
        </mxCell>
        <mxCell id="6pDvvT8k-pxlVnAfTvqK-11" value="&lt;font face=&quot;Times New Roman&quot; style=&quot;font-size: 14px;&quot;&gt;Store Booking Info&lt;/font&gt;" style="endArrow=classic;html=1;rounded=0;entryX=0.5;entryY=1;entryDx=0;entryDy=0;" edge="1" parent="1" target="6pDvvT8k-pxlVnAfTvqK-5">
          <mxGeometry x="-0.2632" width="50" height="50" relative="1" as="geometry">
            <mxPoint x="590" y="320" as="sourcePoint" />
            <mxPoint x="1000" y="320" as="targetPoint" />
            <Array as="points">
              <mxPoint x="930" y="320" />
            </Array>
            <mxPoint as="offset" />
          </mxGeometry>
        </mxCell>
        <mxCell id="6pDvvT8k-pxlVnAfTvqK-12" value="Import Booking Info" style="endArrow=classic;html=1;rounded=0;exitX=0;exitY=0.5;exitDx=0;exitDy=0;entryX=1;entryY=0.5;entryDx=0;entryDy=0;fontSize=14;fontFamily=Times New Roman;" edge="1" parent="1" source="6pDvvT8k-pxlVnAfTvqK-5" target="6pDvvT8k-pxlVnAfTvqK-3">
          <mxGeometry width="50" height="50" relative="1" as="geometry">
            <mxPoint x="770" y="230" as="sourcePoint" />
            <mxPoint x="820" y="180" as="targetPoint" />
          </mxGeometry>
        </mxCell>
      </root>
    </mxGraphModel>
  </diagram>
</mxfile>
